<?xml version="1.0" encoding="UTF-8"?>
<svg width="32" height="32" version="1.1" viewBox="0 0 32 32" xmlns="http://www.w3.org/2000/svg">
 <g>
  <path d="m0 0h32v32h-32z" fill="#f9f9f9" stroke-width="3.3866"/>
  <path d="m6.1358 25.671v-2.5088q-1.8194-0.15321-2.8535-1.1682-1.0342-1.015-1.0725-2.6812h1.896q0 0.90011 0.53624 1.4555 0.53624 0.55539 1.4938 0.68945v-4.7687l-0.45963-0.13406q-1.4938-0.42133-2.2982-1.4746-0.80435-1.0533-0.80435-2.4897 0-1.5704 0.95756-2.5663 0.97672-1.015 2.6046-1.1682v-2.528h1.1682v2.5088q1.647 0.15321 2.6046 1.1682 0.97672 0.99587 0.99587 2.5663h-1.896q0-0.82351-0.44048-1.3597-0.44048-0.53624-1.264-0.6703v4.5197l0.72775 0.22982q1.4555 0.44048 2.2599 1.4938 0.80435 1.0533 0.80435 2.528 0 1.5896-1.0342 2.6429-1.0342 1.0342-2.7578 1.2065v2.5088zm-1.6662-13.234q0 0.82351 0.42133 1.4172 0.44048 0.57454 1.2448 0.84266v-4.1558q-0.7852 0.11491-1.2257 0.61284-0.44048 0.49793-0.44048 1.2831zm2.8344 9.0203q0.90011-0.13406 1.398-0.6703 0.49793-0.55539 0.49793-1.4363 0-0.82351-0.49793-1.4172-0.47878-0.61284-1.3789-0.84266l-0.019151-0.24897zm14.175 0.32557v-1.8002l5.8411-2.8152q0.36388-0.17236 0.68945-0.28727 0.32557-0.13406 0.49793-0.17236-0.17236-0.0383-0.51708-0.15321-0.34472-0.13406-0.6703-0.30642l-5.8411-2.8344v-1.8577l8.3117 4.0984v2.03z" stroke-width="1.5959" aria-label="$ &gt;"/>
 </g>
</svg>
